<svg width="36" height="31" viewBox="0 0 36 31" fill="none" xmlns="http://www.w3.org/2000/svg">
<path d="M34.2371 1.39163C33.796 0.950433 33.2723 0.600454 32.696 0.361676C32.1196 0.122899 31.5018 0 30.878 0C30.2541 0 29.6363 0.122899 29.06 0.361676C28.4836 0.600454 27.9599 0.950433 27.5188 1.39163C27.0776 1.83272 26.7277 2.3564 26.4889 2.93277C26.2501 3.50914 26.1272 4.1269 26.1272 4.75077C26.1272 5.37464 26.2501 5.9924 26.4889 6.56876C26.7277 7.14513 27.0776 7.66882 27.5188 8.10991C27.5619 8.15296 27.6079 8.19452 27.6524 8.23608L23.6995 15.5778C22.4944 15.2839 21.2222 15.4702 20.1519 16.0973L17.1564 13.1019C17.7457 12.1058 17.9511 10.9289 17.734 9.79209C17.5169 8.65531 16.8923 7.6369 15.9774 6.92812C15.0625 6.21935 13.9203 5.86898 12.7653 5.94281C11.6103 6.01665 10.522 6.50962 9.70485 7.32913C9.26365 7.77022 8.91367 8.2939 8.6749 8.87027C8.43612 9.44664 8.31322 10.0644 8.31322 10.6883C8.31322 11.3121 8.43612 11.9299 8.6749 12.5063C8.91367 13.0826 9.26365 13.6063 9.70485 14.0474C9.74789 14.0905 9.79243 14.132 9.83696 14.1736L5.88406 21.5168C5.09061 21.3215 4.2602 21.3342 3.47309 21.5537C2.68598 21.7731 1.9688 22.1919 1.39086 22.7696C0.726671 23.4339 0.274385 24.2803 0.0911928 25.2017C-0.0919992 26.1231 0.00212996 27.0781 0.361678 27.946C0.721226 28.8139 1.33005 29.5556 2.11116 30.0775C2.89227 30.5994 3.81059 30.878 4.75 30.878C5.68942 30.878 6.60774 30.5994 7.38885 30.0775C8.16996 29.5556 8.77878 28.8139 9.13833 27.946C9.49787 27.0781 9.592 26.1231 9.40881 25.2017C9.22562 24.2803 8.77333 23.4339 8.10914 22.7696C8.0661 22.7265 8.02008 22.685 7.97555 22.6434L11.9284 15.3017C12.3001 15.3927 12.6813 15.4391 13.064 15.4398C13.912 15.4408 14.7449 15.2148 15.4761 14.7851L18.4716 17.7806C18.0206 18.546 17.7933 19.4224 17.8155 20.3105C17.8376 21.1986 18.1084 22.0626 18.597 22.8045C19.0856 23.5464 19.7724 24.1364 20.5795 24.5076C21.3866 24.8787 22.2816 25.0161 23.1629 24.9041C24.0441 24.7921 24.8763 24.4352 25.5649 23.874C26.2535 23.3127 26.7709 22.5697 27.0584 21.7291C27.3459 20.8886 27.3919 19.9843 27.1912 19.1189C26.9905 18.2536 26.5512 17.4618 25.9231 16.8336C25.8801 16.7905 25.8355 16.749 25.791 16.7074L29.7439 9.36569C30.1147 9.45608 30.4949 9.50192 30.8765 9.50225C31.8158 9.50211 32.7339 9.2235 33.5149 8.70165C34.2958 8.1798 34.9045 7.43812 35.264 6.57039C35.6236 5.70265 35.7177 4.7478 35.5347 3.82654C35.3516 2.90528 34.8996 2.05898 34.2356 1.3946L34.2371 1.39163ZM6.42883 27.809C5.98318 28.2545 5.37884 28.5047 4.74873 28.5045C4.11863 28.5044 3.5144 28.254 3.06895 27.8083C2.6235 27.3627 2.37333 26.7583 2.37346 26.1282C2.3736 25.4981 2.62404 24.8939 3.06969 24.4484C3.29035 24.2279 3.5523 24.0529 3.84057 23.9336C4.12884 23.8143 4.43779 23.7529 4.74978 23.7529C5.06178 23.753 5.3707 23.8145 5.65892 23.934C5.94714 24.0534 6.20901 24.2285 6.42957 24.4492C6.65014 24.6698 6.82508 24.9318 6.94441 25.22C7.06374 25.5083 7.12512 25.8173 7.12506 26.1293C7.12499 26.4413 7.06347 26.7502 6.94401 27.0384C6.82455 27.3266 6.64949 27.5885 6.42883 27.809ZM11.3837 12.3715C11.1631 12.151 10.9881 11.8892 10.8687 11.601C10.7493 11.3128 10.6879 11.0039 10.6879 10.692C10.6879 10.38 10.7493 10.0712 10.8687 9.78298C10.9881 9.4948 11.1631 9.23295 11.3837 9.01241C11.7158 8.68031 12.139 8.45417 12.5997 8.36257C13.0604 8.27098 13.5379 8.31804 13.9719 8.49782C14.4058 8.67759 14.7767 8.982 15.0376 9.37256C15.2986 9.76311 15.4379 10.2223 15.4379 10.692C15.4379 11.1617 15.2986 11.6208 15.0376 12.0114C14.7767 12.402 14.4058 12.7064 13.9719 12.8861C13.5379 13.0659 13.0604 13.113 12.5997 13.0214C12.139 12.9298 11.7158 12.7036 11.3837 12.3715ZM24.2443 21.8715C23.7988 22.317 23.1947 22.5672 22.5647 22.5672C21.9348 22.5672 21.3306 22.317 20.8852 21.8715C20.4397 21.4261 20.1895 20.8219 20.1895 20.192C20.1895 19.562 20.4397 18.9579 20.8852 18.5124C21.3306 18.067 21.9348 17.8167 22.5647 17.8167C23.1947 17.8167 23.7988 18.067 24.2443 18.5124C24.6897 18.9579 24.94 19.562 24.94 20.192C24.94 20.8219 24.6897 21.4261 24.2443 21.8715ZM32.5568 6.43405C32.1108 6.8793 31.5061 7.12913 30.8759 7.12857C30.2456 7.12802 29.6414 6.87712 29.1962 6.43108C28.7509 5.98504 28.5011 5.38039 28.5016 4.75015C28.5022 4.11991 28.7531 3.51571 29.1991 3.07045C29.4198 2.84989 29.6817 2.67495 29.97 2.55562C30.2583 2.43629 30.5672 2.3749 30.8792 2.37497C31.1912 2.37504 31.5002 2.43656 31.7884 2.55602C32.0766 2.67548 32.3385 2.85053 32.559 3.0712C32.7796 3.29186 32.9545 3.5538 33.0739 3.84207C33.1932 4.13035 33.2546 4.4393 33.2545 4.75129C33.2544 5.06329 33.1929 5.37221 33.0735 5.66043C32.954 5.94865 32.7789 6.21052 32.5583 6.43108L32.5568 6.43405Z" fill="black"/>
</svg>
